<svg xmlns="http://www.w3.org/2000/svg" viewBox="0 0 64 64">
  <rect width="64" height="64" rx="12" fill="#fef9e7"/>
  <path d="M10 14h18c3 0 6 2 6 5v33c0-2-3-4-6-4H10z" fill="#16a34a" stroke="#0c4a6e" stroke-width="2.5" stroke-linejoin="round"/>
  <path d="M54 14H36c-3 0-6 2-6 5v33c0-2 3-4 6-4h18z" fill="#0ea5e9" stroke="#0c4a6e" stroke-width="2.5" stroke-linejoin="round"/>
  <line x1="14" y1="22" x2="26" y2="22" stroke="#fef9e7" stroke-width="2" stroke-linecap="round"/>
  <line x1="14" y1="28" x2="26" y2="28" stroke="#fef9e7" stroke-width="2" stroke-linecap="round"/>
  <line x1="14" y1="34" x2="22" y2="34" stroke="#fef9e7" stroke-width="2" stroke-linecap="round"/>
  <line x1="38" y1="22" x2="50" y2="22" stroke="#fef9e7" stroke-width="2" stroke-linecap="round"/>
  <line x1="38" y1="28" x2="50" y2="28" stroke="#fef9e7" stroke-width="2" stroke-linecap="round"/>
  <line x1="38" y1="34" x2="46" y2="34" stroke="#fef9e7" stroke-width="2" stroke-linecap="round"/>
</svg>
